<mxfile host="app.diagrams.net" agent="Mozilla/5.0 (Windows NT 10.0; Win64; x64) AppleWebKit/537.36 (KHTML, like Gecko) Chrome/135.0.0.0 Safari/537.36" version="26.2.12">
  <diagram name="Halaman-1" id="53NzlIb66p48HWIZmDow">
    <mxGraphModel dx="1961" dy="874" grid="1" gridSize="10" guides="1" tooltips="1" connect="1" arrows="1" fold="1" page="1" pageScale="1" pageWidth="827" pageHeight="1169" math="0" shadow="0">
      <root>
        <mxCell id="0" />
        <mxCell id="1" parent="0" />
        <mxCell id="CA5rDPgPTIMSxNsrrpsZ-1" value="Kustomer" style="swimlane;startSize=20;whiteSpace=wrap;html=1;" vertex="1" parent="1">
          <mxGeometry x="20" y="40" width="220" height="710" as="geometry" />
        </mxCell>
        <mxCell id="CA5rDPgPTIMSxNsrrpsZ-4" value="Cash atau&lt;div&gt;Qris?&lt;/div&gt;" style="strokeWidth=2;html=1;shape=mxgraph.flowchart.decision;whiteSpace=wrap;" vertex="1" parent="CA5rDPgPTIMSxNsrrpsZ-1">
          <mxGeometry x="72.5" y="40" width="75" height="80" as="geometry" />
        </mxCell>
        <mxCell id="CA5rDPgPTIMSxNsrrpsZ-25" value="Mengscan&lt;div&gt;barcode&lt;/div&gt;" style="verticalLabelPosition=middle;verticalAlign=middle;html=1;shape=trapezoid;perimeter=trapezoidPerimeter;whiteSpace=wrap;size=0.23;arcSize=10;flipV=1;labelPosition=center;align=center;" vertex="1" parent="CA5rDPgPTIMSxNsrrpsZ-1">
          <mxGeometry y="140" width="100" height="60" as="geometry" />
        </mxCell>
        <mxCell id="CA5rDPgPTIMSxNsrrpsZ-21" value="Menyiapkan&amp;nbsp;&lt;div&gt;uang tunai&lt;/div&gt;" style="verticalLabelPosition=middle;verticalAlign=middle;html=1;shape=trapezoid;perimeter=trapezoidPerimeter;whiteSpace=wrap;size=0.23;arcSize=10;flipV=1;labelPosition=center;align=center;" vertex="1" parent="CA5rDPgPTIMSxNsrrpsZ-1">
          <mxGeometry x="120" y="140" width="100" height="60" as="geometry" />
        </mxCell>
        <mxCell id="CA5rDPgPTIMSxNsrrpsZ-26" value="" style="endArrow=classic;html=1;rounded=0;exitX=0;exitY=0.5;exitDx=0;exitDy=0;exitPerimeter=0;entryX=0.5;entryY=0;entryDx=0;entryDy=0;" edge="1" parent="CA5rDPgPTIMSxNsrrpsZ-1" source="CA5rDPgPTIMSxNsrrpsZ-4" target="CA5rDPgPTIMSxNsrrpsZ-25">
          <mxGeometry width="50" height="50" relative="1" as="geometry">
            <mxPoint x="310" y="80" as="sourcePoint" />
            <mxPoint x="310" y="120" as="targetPoint" />
            <Array as="points">
              <mxPoint x="50" y="80" />
            </Array>
          </mxGeometry>
        </mxCell>
        <mxCell id="CA5rDPgPTIMSxNsrrpsZ-27" value="" style="endArrow=classic;html=1;rounded=0;exitX=1;exitY=0.5;exitDx=0;exitDy=0;exitPerimeter=0;entryX=0.5;entryY=0;entryDx=0;entryDy=0;" edge="1" parent="CA5rDPgPTIMSxNsrrpsZ-1" source="CA5rDPgPTIMSxNsrrpsZ-4" target="CA5rDPgPTIMSxNsrrpsZ-21">
          <mxGeometry width="50" height="50" relative="1" as="geometry">
            <mxPoint x="320" y="90" as="sourcePoint" />
            <mxPoint x="320" y="130" as="targetPoint" />
            <Array as="points">
              <mxPoint x="170" y="80" />
            </Array>
          </mxGeometry>
        </mxCell>
        <mxCell id="CA5rDPgPTIMSxNsrrpsZ-28" value="Cash" style="text;html=1;align=center;verticalAlign=middle;resizable=0;points=[];autosize=1;strokeColor=none;fillColor=none;" vertex="1" parent="CA5rDPgPTIMSxNsrrpsZ-1">
          <mxGeometry x="150" y="60" width="50" height="30" as="geometry" />
        </mxCell>
        <mxCell id="CA5rDPgPTIMSxNsrrpsZ-29" value="Qris" style="text;html=1;align=center;verticalAlign=middle;resizable=0;points=[];autosize=1;strokeColor=none;fillColor=none;" vertex="1" parent="CA5rDPgPTIMSxNsrrpsZ-1">
          <mxGeometry x="20" y="60" width="50" height="30" as="geometry" />
        </mxCell>
        <mxCell id="CA5rDPgPTIMSxNsrrpsZ-30" value="Memasukkan nominal sesuai&lt;div&gt;pembayaran&lt;/div&gt;" style="verticalLabelPosition=middle;verticalAlign=middle;html=1;shape=trapezoid;perimeter=trapezoidPerimeter;whiteSpace=wrap;size=0.23;arcSize=10;flipV=1;labelPosition=center;align=center;" vertex="1" parent="CA5rDPgPTIMSxNsrrpsZ-1">
          <mxGeometry y="240" width="100" height="60" as="geometry" />
        </mxCell>
        <mxCell id="CA5rDPgPTIMSxNsrrpsZ-31" value="Menyerahkan&lt;div&gt;nominal sesuai&lt;div&gt;pembayaran&lt;/div&gt;&lt;/div&gt;" style="verticalLabelPosition=middle;verticalAlign=middle;html=1;shape=trapezoid;perimeter=trapezoidPerimeter;whiteSpace=wrap;size=0.23;arcSize=10;flipV=1;labelPosition=center;align=center;" vertex="1" parent="CA5rDPgPTIMSxNsrrpsZ-1">
          <mxGeometry x="120" y="240" width="100" height="60" as="geometry" />
        </mxCell>
        <mxCell id="CA5rDPgPTIMSxNsrrpsZ-33" value="" style="endArrow=classic;html=1;rounded=0;exitX=0.5;exitY=1;exitDx=0;exitDy=0;" edge="1" parent="CA5rDPgPTIMSxNsrrpsZ-1" source="CA5rDPgPTIMSxNsrrpsZ-25" target="CA5rDPgPTIMSxNsrrpsZ-30">
          <mxGeometry width="50" height="50" relative="1" as="geometry">
            <mxPoint x="310" y="80" as="sourcePoint" />
            <mxPoint x="310" y="120" as="targetPoint" />
          </mxGeometry>
        </mxCell>
        <mxCell id="CA5rDPgPTIMSxNsrrpsZ-34" value="" style="endArrow=classic;html=1;rounded=0;exitX=0.5;exitY=1;exitDx=0;exitDy=0;entryX=0.5;entryY=0;entryDx=0;entryDy=0;" edge="1" parent="CA5rDPgPTIMSxNsrrpsZ-1" source="CA5rDPgPTIMSxNsrrpsZ-21" target="CA5rDPgPTIMSxNsrrpsZ-31">
          <mxGeometry width="50" height="50" relative="1" as="geometry">
            <mxPoint x="320" y="90" as="sourcePoint" />
            <mxPoint x="320" y="130" as="targetPoint" />
          </mxGeometry>
        </mxCell>
        <mxCell id="CA5rDPgPTIMSxNsrrpsZ-9" value="Pegawai" style="swimlane;startSize=20;whiteSpace=wrap;html=1;" vertex="1" parent="1">
          <mxGeometry x="240" y="40" width="160" height="710" as="geometry" />
        </mxCell>
        <mxCell id="CA5rDPgPTIMSxNsrrpsZ-2" value="Mulai" style="strokeWidth=2;html=1;shape=mxgraph.flowchart.terminator;whiteSpace=wrap;" vertex="1" parent="CA5rDPgPTIMSxNsrrpsZ-9">
          <mxGeometry x="50" y="40" width="60" height="30" as="geometry" />
        </mxCell>
        <mxCell id="CA5rDPgPTIMSxNsrrpsZ-3" value="Memberi tahu&lt;div&gt;jumlah&lt;/div&gt;&lt;div&gt;pembayaran&lt;/div&gt;" style="verticalLabelPosition=middle;verticalAlign=middle;html=1;shape=trapezoid;perimeter=trapezoidPerimeter;whiteSpace=wrap;size=0.23;arcSize=10;flipV=1;labelPosition=center;align=center;" vertex="1" parent="CA5rDPgPTIMSxNsrrpsZ-9">
          <mxGeometry x="30" y="110" width="100" height="60" as="geometry" />
        </mxCell>
        <mxCell id="CA5rDPgPTIMSxNsrrpsZ-5" value="" style="endArrow=classic;html=1;rounded=0;exitX=0.5;exitY=1;exitDx=0;exitDy=0;exitPerimeter=0;entryX=0.5;entryY=0;entryDx=0;entryDy=0;" edge="1" parent="CA5rDPgPTIMSxNsrrpsZ-9" source="CA5rDPgPTIMSxNsrrpsZ-2" target="CA5rDPgPTIMSxNsrrpsZ-3">
          <mxGeometry width="50" height="50" relative="1" as="geometry">
            <mxPoint x="310" y="340" as="sourcePoint" />
            <mxPoint x="360" y="290" as="targetPoint" />
          </mxGeometry>
        </mxCell>
        <mxCell id="CA5rDPgPTIMSxNsrrpsZ-32" value="Mengkonfirmasi&lt;br&gt;&lt;div&gt;pembayaran&lt;/div&gt;" style="verticalLabelPosition=middle;verticalAlign=middle;html=1;shape=trapezoid;perimeter=trapezoidPerimeter;whiteSpace=wrap;size=0.23;arcSize=10;flipV=1;labelPosition=center;align=center;" vertex="1" parent="CA5rDPgPTIMSxNsrrpsZ-9">
          <mxGeometry x="30" y="330" width="100" height="60" as="geometry" />
        </mxCell>
        <mxCell id="CA5rDPgPTIMSxNsrrpsZ-38" value="&lt;div&gt;&lt;br&gt;&lt;/div&gt;Mencatat pada&lt;div&gt;laporan transaksi&lt;/div&gt;" style="html=1;strokeWidth=2;shape=manualInput;whiteSpace=wrap;rounded=1;size=26;arcSize=11;" vertex="1" parent="CA5rDPgPTIMSxNsrrpsZ-9">
          <mxGeometry x="30" y="430" width="100" height="60" as="geometry" />
        </mxCell>
        <mxCell id="CA5rDPgPTIMSxNsrrpsZ-39" value="" style="endArrow=classic;html=1;rounded=0;exitX=0.5;exitY=1;exitDx=0;exitDy=0;entryX=0.5;entryY=0;entryDx=0;entryDy=0;" edge="1" parent="CA5rDPgPTIMSxNsrrpsZ-9" source="CA5rDPgPTIMSxNsrrpsZ-32" target="CA5rDPgPTIMSxNsrrpsZ-38">
          <mxGeometry width="50" height="50" relative="1" as="geometry">
            <mxPoint x="-40" y="210" as="sourcePoint" />
            <mxPoint x="-40" y="250" as="targetPoint" />
          </mxGeometry>
        </mxCell>
        <mxCell id="CA5rDPgPTIMSxNsrrpsZ-40" value="Laporan&amp;nbsp;&lt;div&gt;transaksi&lt;/div&gt;" style="strokeWidth=2;html=1;shape=mxgraph.flowchart.document2;whiteSpace=wrap;size=0.25;" vertex="1" parent="CA5rDPgPTIMSxNsrrpsZ-9">
          <mxGeometry x="35" y="530" width="90" height="40" as="geometry" />
        </mxCell>
        <mxCell id="CA5rDPgPTIMSxNsrrpsZ-41" value="Rekapitulasi&lt;div&gt;transaksi&amp;nbsp;&lt;/div&gt;&lt;div&gt;selama&lt;/div&gt;&lt;div&gt;1 bulan&lt;/div&gt;" style="verticalLabelPosition=middle;verticalAlign=middle;html=1;shape=trapezoid;perimeter=trapezoidPerimeter;whiteSpace=wrap;size=0.23;arcSize=10;flipV=1;labelPosition=center;align=center;" vertex="1" parent="CA5rDPgPTIMSxNsrrpsZ-9">
          <mxGeometry x="30" y="610" width="100" height="60" as="geometry" />
        </mxCell>
        <mxCell id="CA5rDPgPTIMSxNsrrpsZ-44" value="" style="endArrow=classic;html=1;rounded=0;exitX=0.5;exitY=1;exitDx=0;exitDy=0;entryX=0.5;entryY=0;entryDx=0;entryDy=0;entryPerimeter=0;" edge="1" parent="CA5rDPgPTIMSxNsrrpsZ-9" source="CA5rDPgPTIMSxNsrrpsZ-38" target="CA5rDPgPTIMSxNsrrpsZ-40">
          <mxGeometry width="50" height="50" relative="1" as="geometry">
            <mxPoint x="90" y="400" as="sourcePoint" />
            <mxPoint x="90" y="440" as="targetPoint" />
          </mxGeometry>
        </mxCell>
        <mxCell id="CA5rDPgPTIMSxNsrrpsZ-45" value="" style="endArrow=classic;html=1;rounded=0;exitX=0.502;exitY=0.939;exitDx=0;exitDy=0;exitPerimeter=0;entryX=0.5;entryY=0;entryDx=0;entryDy=0;" edge="1" parent="CA5rDPgPTIMSxNsrrpsZ-9" source="CA5rDPgPTIMSxNsrrpsZ-40" target="CA5rDPgPTIMSxNsrrpsZ-41">
          <mxGeometry width="50" height="50" relative="1" as="geometry">
            <mxPoint x="100" y="410" as="sourcePoint" />
            <mxPoint x="120" y="590" as="targetPoint" />
          </mxGeometry>
        </mxCell>
        <mxCell id="CA5rDPgPTIMSxNsrrpsZ-15" value="Pemilik" style="swimlane;startSize=20;whiteSpace=wrap;html=1;" vertex="1" parent="1">
          <mxGeometry x="400" y="40" width="160" height="710" as="geometry" />
        </mxCell>
        <mxCell id="CA5rDPgPTIMSxNsrrpsZ-42" value="Laporan&amp;nbsp;&lt;span style=&quot;background-color: transparent; color: light-dark(rgb(0, 0, 0), rgb(255, 255, 255));&quot;&gt;transaksi&lt;/span&gt;&lt;div&gt;dalam sebulan&lt;/div&gt;" style="strokeWidth=2;html=1;shape=mxgraph.flowchart.document2;whiteSpace=wrap;size=0.25;" vertex="1" parent="CA5rDPgPTIMSxNsrrpsZ-15">
          <mxGeometry x="35" y="40" width="95" height="60" as="geometry" />
        </mxCell>
        <mxCell id="CA5rDPgPTIMSxNsrrpsZ-43" value="Selesai" style="strokeWidth=2;html=1;shape=mxgraph.flowchart.terminator;whiteSpace=wrap;" vertex="1" parent="CA5rDPgPTIMSxNsrrpsZ-15">
          <mxGeometry x="50" y="130" width="60" height="30" as="geometry" />
        </mxCell>
        <mxCell id="CA5rDPgPTIMSxNsrrpsZ-47" value="" style="endArrow=classic;html=1;rounded=0;exitX=0.469;exitY=0.888;exitDx=0;exitDy=0;exitPerimeter=0;entryX=0.5;entryY=0;entryDx=0;entryDy=0;entryPerimeter=0;" edge="1" parent="CA5rDPgPTIMSxNsrrpsZ-15" source="CA5rDPgPTIMSxNsrrpsZ-42" target="CA5rDPgPTIMSxNsrrpsZ-43">
          <mxGeometry width="50" height="50" relative="1" as="geometry">
            <mxPoint x="-60" y="588" as="sourcePoint" />
            <mxPoint x="-60" y="630" as="targetPoint" />
          </mxGeometry>
        </mxCell>
        <mxCell id="CA5rDPgPTIMSxNsrrpsZ-6" value="" style="endArrow=classic;html=1;rounded=0;exitX=0;exitY=0.5;exitDx=0;exitDy=0;entryX=0.5;entryY=0;entryDx=0;entryDy=0;entryPerimeter=0;" edge="1" parent="1" source="CA5rDPgPTIMSxNsrrpsZ-3" target="CA5rDPgPTIMSxNsrrpsZ-4">
          <mxGeometry width="50" height="50" relative="1" as="geometry">
            <mxPoint x="170" y="120" as="sourcePoint" />
            <mxPoint x="170" y="160" as="targetPoint" />
            <Array as="points">
              <mxPoint x="260" y="180" />
              <mxPoint x="260" y="70" />
              <mxPoint x="130" y="70" />
            </Array>
          </mxGeometry>
        </mxCell>
        <mxCell id="CA5rDPgPTIMSxNsrrpsZ-35" value="" style="endArrow=classic;html=1;rounded=0;exitX=0.5;exitY=1;exitDx=0;exitDy=0;entryX=0;entryY=0.75;entryDx=0;entryDy=0;" edge="1" parent="1" source="CA5rDPgPTIMSxNsrrpsZ-30" target="CA5rDPgPTIMSxNsrrpsZ-32">
          <mxGeometry width="50" height="50" relative="1" as="geometry">
            <mxPoint x="80" y="250" as="sourcePoint" />
            <mxPoint x="80" y="290" as="targetPoint" />
            <Array as="points">
              <mxPoint x="70" y="410" />
            </Array>
          </mxGeometry>
        </mxCell>
        <mxCell id="CA5rDPgPTIMSxNsrrpsZ-36" value="" style="endArrow=classic;html=1;rounded=0;exitX=0.5;exitY=1;exitDx=0;exitDy=0;entryX=0;entryY=0.25;entryDx=0;entryDy=0;" edge="1" parent="1" source="CA5rDPgPTIMSxNsrrpsZ-31" target="CA5rDPgPTIMSxNsrrpsZ-32">
          <mxGeometry width="50" height="50" relative="1" as="geometry">
            <mxPoint x="90" y="260" as="sourcePoint" />
            <mxPoint x="90" y="300" as="targetPoint" />
            <Array as="points">
              <mxPoint x="190" y="387" />
            </Array>
          </mxGeometry>
        </mxCell>
        <mxCell id="CA5rDPgPTIMSxNsrrpsZ-46" value="" style="endArrow=classic;html=1;rounded=0;exitX=1;exitY=0.5;exitDx=0;exitDy=0;entryX=-0.006;entryY=0.421;entryDx=0;entryDy=0;entryPerimeter=0;" edge="1" parent="1" source="CA5rDPgPTIMSxNsrrpsZ-41" target="CA5rDPgPTIMSxNsrrpsZ-42">
          <mxGeometry width="50" height="50" relative="1" as="geometry">
            <mxPoint x="330" y="618" as="sourcePoint" />
            <mxPoint x="330" y="660" as="targetPoint" />
            <Array as="points">
              <mxPoint x="420" y="680" />
              <mxPoint x="420" y="105" />
            </Array>
          </mxGeometry>
        </mxCell>
      </root>
    </mxGraphModel>
  </diagram>
</mxfile>
